<svg width="112" height="112" viewBox="0 0 112 112" fill="none" xmlns="http://www.w3.org/2000/svg">
<g id="Group 15">
<g id="Group 3" filter="url(#filter0_d_7_704)">
<circle id="Ellipse 2" cx="56" cy="52" r="36" fill="#010101"/>
<g id="Frame">
<path id="Vector" d="M56.1234 40.8626C56.2388 40.8749 56.352 40.9054 56.4583 40.9534C56.5999 41.0174 56.7267 41.1103 56.8294 41.2269C56.9321 41.3434 57.0084 41.4808 57.054 41.6292C57.0978 41.7716 57.1112 41.9216 57.095 42.0696V50.9202H65.9544L65.9642 50.9212C66.2285 50.9548 66.4716 51.0836 66.6478 51.2835C66.8239 51.4834 66.9211 51.7407 66.9212 52.0071C66.9212 52.2737 66.824 52.5318 66.6478 52.7318C66.4716 52.9316 66.2285 53.0605 65.9642 53.0941L65.9544 53.095H57.095V61.9544L57.0941 61.9642C57.0605 62.2285 56.9316 62.4716 56.7318 62.6478C56.5318 62.824 56.2737 62.9212 56.0072 62.9212C55.7407 62.9211 55.4834 62.8239 55.2835 62.6478C55.0836 62.4716 54.9548 62.2285 54.9212 61.9642L54.9202 61.9544V53.095H46.0745C45.925 53.112 45.7732 53.0983 45.6292 53.054C45.4808 53.0084 45.3434 52.9321 45.2269 52.8294C45.1103 52.7267 45.0174 52.5999 44.9534 52.4583C44.8895 52.3167 44.8558 52.1626 44.8558 52.0071L44.8626 51.8909C44.875 51.7757 44.9056 51.663 44.9534 51.5569C45.0174 51.4154 45.1103 51.2886 45.2269 51.1859C45.3434 51.0832 45.4808 51.0069 45.6292 50.9612C45.7738 50.9168 45.9263 50.9029 46.0765 50.9202H54.9202V42.0755C54.9031 41.9256 54.9169 41.7735 54.9613 41.6292C55.0069 41.4808 55.0832 41.3434 55.1859 41.2269C55.2886 41.1103 55.4154 41.0174 55.557 40.9534C55.6985 40.8895 55.8519 40.8558 56.0072 40.8558L56.1234 40.8626Z" fill="white" stroke="white" stroke-width="0.3"/>
</g>
</g>
</g>
<defs>
<filter id="filter0_d_7_704" x="0" y="0" width="112" height="112" filterUnits="userSpaceOnUse" color-interpolation-filters="sRGB">
<feFlood flood-opacity="0" result="BackgroundImageFix"/>
<feColorMatrix in="SourceAlpha" type="matrix" values="0 0 0 0 0 0 0 0 0 0 0 0 0 0 0 0 0 0 127 0" result="hardAlpha"/>
<feOffset dy="4"/>
<feGaussianBlur stdDeviation="10"/>
<feComposite in2="hardAlpha" operator="out"/>
<feColorMatrix type="matrix" values="0 0 0 0 0.322115 0 0 0 0 0.320567 0 0 0 0 0.320567 0 0 0 0.25 0"/>
<feBlend mode="normal" in2="BackgroundImageFix" result="effect1_dropShadow_7_704"/>
<feBlend mode="normal" in="SourceGraphic" in2="effect1_dropShadow_7_704" result="shape"/>
</filter>
</defs>
</svg>
