<svg width="26" height="26" viewBox="0 0 26 26" fill="none" xmlns="http://www.w3.org/2000/svg">
<g id="WeUI&#229;&#159;&#186;&#231;&#161;&#128;&#230;&#160;&#183;&#229;&#188;&#143;&#229;&#186;&#147;">
<g id="WeUI&#229;&#159;&#186;&#231;&#161;&#128;&#230;&#160;&#183;&#229;&#188;&#143;&#229;&#186;&#147;_Light">
<g id="Frame">
<path id="Vector" d="M21.403 19.7569L14.6466 13.0003L21.403 6.24313C21.6232 6.02287 21.7444 5.73003 21.7442 5.4185C21.744 5.1079 21.623 4.81636 21.4036 4.59756C21.1838 4.37723 20.892 4.25605 20.5813 4.25586C20.2693 4.25586 19.9768 4.37702 19.7568 4.59699L13.0005 11.3533L6.24312 4.59699C6.02316 4.37702 5.73085 4.25586 5.42005 4.25586C5.10928 4.25586 4.81698 4.37699 4.59703 4.59693C4.37715 4.81623 4.25607 5.1079 4.25586 5.4185C4.25565 5.73003 4.37681 6.02287 4.59703 6.2431L11.3544 13.0003L4.59701 19.7569C4.37702 19.9769 4.25586 20.2691 4.25586 20.5799C4.25586 20.8907 4.37704 21.183 4.59703 21.403C4.81698 21.623 5.10925 21.7441 5.42003 21.7441C5.73083 21.7441 6.02316 21.623 6.2431 21.403L13.0004 14.6466L19.7569 21.403C19.9769 21.623 20.2694 21.7441 20.5806 21.7441C20.8921 21.7439 21.1836 21.623 21.4025 21.4036C21.8567 20.9493 21.8568 20.2107 21.403 19.7569Z" fill="#010101"/>
</g>
</g>
</g>
</svg>
