<svg width="28" height="28" viewBox="0 0 28 28" fill="none" xmlns="http://www.w3.org/2000/svg">
<g id="solar:camera-rotate-linear">
<g id="Group">
<path id="Vector" d="M11.4076 24.5H16.5923C20.2334 24.5 22.0546 24.5 23.3624 23.6425C23.9269 23.2728 24.4129 22.7955 24.7928 22.2378C25.6666 20.9545 25.6666 19.166 25.6666 15.5913C25.6666 12.0167 25.6666 10.2282 24.7928 8.94483C24.4129 8.38715 23.9269 7.90983 23.3624 7.54016C22.5224 6.98833 21.4701 6.79116 19.8589 6.72116C19.0901 6.72116 18.4286 6.14949 18.2781 5.40866C18.1631 4.86601 17.8642 4.3797 17.4321 4.03194C16.9999 3.68417 16.4609 3.49627 15.9063 3.49999H12.0936C10.9409 3.49999 9.94809 4.29916 9.72175 5.40866C9.57125 6.14949 8.90975 6.72116 8.14092 6.72116C6.53092 6.79116 5.47859 6.98949 4.63742 7.54016C4.07338 7.90995 3.58774 8.38726 3.20825 8.94483C2.33325 10.2282 2.33325 12.0155 2.33325 15.5913C2.33325 19.1672 2.33325 20.9533 3.20709 22.2378C3.58509 22.7932 4.07042 23.2703 4.63742 23.6425C5.94525 24.5 7.76642 24.5 11.4076 24.5Z" stroke="#010101" stroke-width="1.6"/>
<path id="Vector_2" d="M16.94 12.46L16.6133 12.1333C16.0215 11.5414 15.2463 11.1678 14.4146 11.0738C13.5828 10.9798 12.7438 11.1709 12.0348 11.6158C11.3258 12.0608 10.7888 12.7332 10.5118 13.5231C10.2347 14.3129 10.234 15.1735 10.5097 15.9638C10.7854 16.7541 11.3212 17.4275 12.0295 17.8736C12.7377 18.3198 13.5764 18.5123 14.4083 18.4197C15.2402 18.3271 16.0161 17.9549 16.6089 17.3639C17.2017 16.773 17.5763 15.9983 17.6715 15.1667M16.94 12.46L15.1667 12.8333M16.94 12.46V10.5" stroke="#010101" stroke-width="1.6" stroke-linecap="round" stroke-linejoin="round"/>
</g>
</g>
</svg>
