<svg width="22" height="22" viewBox="0 0 22 22" fill="none" xmlns="http://www.w3.org/2000/svg">
<g id="solar:chat-round-unread-outline">
<path id="Vector" d="M10.9998 2.15021C11.6055 2.1513 12.1961 2.21004 12.7703 2.32697C12.9426 2.36222 13.0941 2.46443 13.1912 2.61115C13.2882 2.75799 13.323 2.93769 13.2878 3.11017C13.2526 3.28272 13.1506 3.43492 13.0037 3.53204C12.8568 3.6291 12.6771 3.66383 12.5046 3.62872C12.0094 3.52845 11.505 3.4781 10.9998 3.47833C9.00485 3.47839 7.09201 4.27084 5.6814 5.68146C4.27078 7.09208 3.47832 9.00491 3.47827 10.9998C3.47827 12.2041 3.76083 13.341 4.26245 14.3484C4.47012 14.7655 4.55086 15.2645 4.41968 15.7567L3.9314 17.5779C3.91321 17.6457 3.91333 17.7172 3.9314 17.785C3.94953 17.8528 3.98528 17.915 4.03491 17.9647C4.08444 18.0142 4.14598 18.0499 4.21362 18.0682C4.28137 18.0864 4.35286 18.0862 4.42065 18.0682L6.2439 17.5809H6.24487C6.71705 17.4599 7.21718 17.5151 7.65112 17.7371C8.69121 18.2552 9.83779 18.5243 10.9998 18.5223C12.1153 18.5225 13.2174 18.2748 14.2253 17.7967C15.2332 17.3186 16.1223 16.6216 16.8279 15.7576C17.5333 14.8937 18.0374 13.8836 18.3044 12.8006C18.5715 11.7176 18.5949 10.5888 18.3718 9.49591C18.3544 9.41046 18.3533 9.32176 18.3699 9.23615C18.3865 9.15065 18.4205 9.06954 18.4685 8.99689C18.5165 8.92422 18.578 8.8611 18.6501 8.81232C18.7224 8.76351 18.804 8.72917 18.8894 8.71173C18.9747 8.69432 19.0627 8.69425 19.1482 8.71075C19.2337 8.72733 19.3157 8.7604 19.3884 8.80841C19.4612 8.8565 19.5242 8.91876 19.573 8.99103C19.6218 9.06327 19.6552 9.14489 19.6726 9.23029C19.7895 9.8044 19.8492 10.3942 19.8503 10.9998C19.8503 15.8875 15.8874 19.8504 10.9998 19.8504C9.58569 19.8504 8.24718 19.5176 7.05933 18.9266L7.05835 18.9256C6.91301 18.8494 6.74464 18.8282 6.58472 18.8651L6.58374 18.8641L4.7644 19.3514C3.4797 19.6953 2.30426 18.5199 2.64819 17.2352L3.13647 15.4129C3.17262 15.2537 3.15075 15.0869 3.07495 14.9422V14.9412C2.46502 13.7171 2.14822 12.3675 2.15015 10.9998C2.15025 6.1123 6.11225 2.15032 10.9998 2.15021ZM16.7302 2.15021C17.5575 2.15022 18.3512 2.47836 18.9363 3.06329C19.5212 3.64826 19.8502 4.44209 19.8503 5.26935C19.8503 6.09665 19.5212 6.89036 18.9363 7.4754C18.3512 8.06046 17.5576 8.38945 16.7302 8.38947C15.9028 8.38947 15.1092 8.06047 14.5242 7.4754C13.9392 6.89035 13.6101 6.09667 13.6101 5.26935C13.6102 4.44209 13.9392 3.64826 14.5242 3.06329C15.1092 2.47837 15.9029 2.15021 16.7302 2.15021ZM16.7302 3.47833C16.495 3.47833 16.262 3.5241 16.0447 3.61407C15.8274 3.70408 15.63 3.83647 15.4636 4.00275C15.2973 4.16906 15.165 4.36652 15.075 4.5838C14.985 4.80107 14.9383 5.03418 14.9382 5.26935C14.9382 5.50466 14.9849 5.73847 15.075 5.95587C15.165 6.17311 15.2973 6.37064 15.4636 6.53693C15.63 6.70318 15.8274 6.8356 16.0447 6.9256C16.262 7.01557 16.495 7.06134 16.7302 7.06134C17.2053 7.06133 17.6608 6.8728 17.9968 6.53693C18.3329 6.20089 18.5222 5.74458 18.5222 5.26935C18.5221 4.79427 18.3328 4.33868 17.9968 4.00275C17.6608 3.66684 17.2053 3.47834 16.7302 3.47833Z" fill="#010101" stroke="#010101" stroke-width="0.1"/>
</g>
</svg>
