<svg width="28" height="28" viewBox="0 0 28 28" fill="none" xmlns="http://www.w3.org/2000/svg">
<g id="Frame">
<path id="Vector" d="M25.4191 23.135H23.1353V25.4187C23.1353 25.8394 22.7948 26.18 22.374 26.18C21.9532 26.18 21.6127 25.8392 21.6127 25.4187V23.135H4.86461V6.38751H2.58079C2.38245 6.38213 2.19404 6.29956 2.05566 6.15737C1.91728 6.01518 1.83984 5.8246 1.83984 5.62619C1.83984 5.42777 1.91728 5.23719 2.05566 5.09501C2.19404 4.95282 2.38245 4.87025 2.58079 4.86487H4.86461V2.58133C4.86458 2.48134 4.88424 2.38232 4.92249 2.28994C4.96074 2.19756 5.01681 2.11361 5.08752 2.04291C5.15822 1.97221 5.24216 1.91613 5.33455 1.87788C5.42693 1.83964 5.52595 1.81997 5.62593 1.82001C5.72592 1.81999 5.82492 1.83967 5.9173 1.87792C6.00968 1.91618 6.09361 1.97225 6.16431 2.04295C6.23501 2.11365 6.29109 2.19759 6.32934 2.28996C6.36759 2.38234 6.38727 2.48134 6.38725 2.58133V4.86501H18.4623L17.0609 6.38751H6.38725V20.5026L22.9823 3.18039L24.0588 4.25671L7.43165 21.6125H21.6128V10.1938L23.1353 8.67133V21.6126H25.4191C25.5203 21.6107 25.6209 21.629 25.7149 21.6663C25.809 21.7037 25.8946 21.7595 25.9669 21.8304C26.0391 21.9012 26.0965 21.9858 26.1357 22.0791C26.1749 22.1724 26.1951 22.2726 26.1951 22.3738C26.1951 22.475 26.1749 22.5752 26.1357 22.6685C26.0965 22.7619 26.0391 22.8464 25.9669 22.9173C25.8946 22.9882 25.809 23.0439 25.7149 23.0813C25.6209 23.1187 25.5203 23.1369 25.4191 23.135Z" fill="#010101"/>
</g>
</svg>
