<svg width="35" height="35" viewBox="0 0 35 35" fill="none" xmlns="http://www.w3.org/2000/svg">
<g id="Group 9042">
<circle id="Ellipse 778" cx="17.5" cy="17.5" r="17.5" fill="white"/>
<g id="Frame">
<path id="Vector" d="M18.1707 10.3496L18.1697 10.5L18.1687 11.5186L18.1677 11.668H18.0017C16.307 11.668 14.7165 12.3274 13.5193 13.5264C12.3201 14.7255 11.659 16.3161 11.6589 18.0107C11.6589 19.5996 12.2383 21.0971 13.2986 22.2646L13.5173 22.4941L13.7458 22.7129C14.9135 23.7732 16.4127 24.3515 17.9998 24.3516C19.6926 24.3516 21.284 23.6934 22.4832 22.4961L22.7009 22.2666C23.7602 21.099 24.3406 19.6017 24.3406 18.0146V17.8643H25.6589V18.0146C25.6589 19.0474 25.4551 20.0512 25.0564 20.9951C24.6706 21.9075 24.1173 22.7252 23.4148 23.4277C22.712 24.1305 21.8925 24.6817 20.9822 25.0674C20.0362 25.468 19.0342 25.6699 17.9998 25.6699C16.9674 25.6699 15.9641 25.4679 15.0183 25.0674C14.1058 24.6816 13.2871 24.1283 12.5828 23.4258C11.8802 22.7232 11.3278 21.9035 10.9421 20.9912C10.5453 20.0474 10.3406 19.0435 10.3406 18.0107C10.3406 16.9782 10.5435 15.9742 10.9441 15.0283C11.3299 14.116 11.8824 13.298 12.5847 12.5938C13.2874 11.8911 14.1078 11.3389 15.0203 10.9531C15.9641 10.5545 16.9673 10.3496 18.0017 10.3496H18.1707ZM25.6414 10.3936V15.3496H24.323V11.7119H20.6716V10.3936H25.6414Z" fill="#010101" stroke="#010101" stroke-width="0.3"/>
<path id="Vector_2" d="M24.7222 10.5813L25.4419 11.302L25.5483 11.4075L18.8521 18.1037L18.7466 17.9973L18.0259 17.2776L17.9204 17.1711L18.0259 17.0647L24.5103 10.5813L24.6157 10.4758L24.7222 10.5813Z" fill="#010101" stroke="#010101" stroke-width="0.3"/>
</g>
</g>
</svg>
