<svg width="20" height="20" viewBox="0 0 20 20" fill="none" xmlns="http://www.w3.org/2000/svg">
<g id="Frame">
<path id="Vector" d="M17.8893 12.3459C17.421 12.3459 17.0414 12.7256 17.0414 13.1938V16.1977C17.0414 16.666 16.6618 17.0456 16.1936 17.0456H3.7941C3.32584 17.0456 2.94623 16.666 2.94623 16.1977V13.1938C2.94623 12.7256 2.56662 12.346 2.09836 12.346C1.6301 12.346 1.25049 12.7256 1.25049 13.1938V17.0456C1.25049 17.9822 2.00971 18.7414 2.94625 18.7414H17.0414C17.978 18.7414 18.7372 17.9822 18.7372 17.0456V13.1938C18.7372 12.7256 18.3576 12.3459 17.8893 12.3459Z" fill="#010101"/>
<path id="Vector_2" d="M14.5711 8.65438C14.2398 8.32301 13.7025 8.32301 13.3711 8.65438L10.9439 11.0816V2.10346C10.9439 1.63483 10.564 1.25494 10.0954 1.25494C9.62675 1.25494 9.24687 1.63485 9.24687 2.10346V11.0816L6.81962 8.65442C6.48825 8.32305 5.95099 8.32305 5.61962 8.65442C5.28825 8.98578 5.28825 9.52305 5.61962 9.85442L9.48966 13.7244C9.49155 13.7264 9.49331 13.7284 9.49522 13.7303C9.51418 13.7492 9.53402 13.7672 9.55466 13.7842L9.55573 13.7852C9.56534 13.7931 9.57513 13.8007 9.58501 13.8082L9.58815 13.8106C9.59778 13.8178 9.60755 13.8247 9.61739 13.8314C9.61888 13.8324 9.62034 13.8335 9.62185 13.8345C9.63136 13.8409 9.64099 13.847 9.65069 13.853C9.65276 13.8543 9.6548 13.8556 9.65688 13.8569C9.66608 13.8624 9.67538 13.8677 9.68472 13.8729C9.68757 13.8745 9.69038 13.8761 9.69325 13.8777C9.70188 13.8823 9.71062 13.8867 9.71938 13.891C9.72323 13.8929 9.72704 13.8949 9.73093 13.8967C9.73878 13.9005 9.74671 13.904 9.75466 13.9075C9.75966 13.9097 9.76464 13.9119 9.76968 13.914C9.77663 13.9169 9.78362 13.9196 9.79062 13.9222C9.79683 13.9246 9.803 13.927 9.80927 13.9293C9.81528 13.9314 9.82136 13.9334 9.82741 13.9354C9.83472 13.9378 9.842 13.9403 9.84938 13.9425C9.85462 13.9441 9.85989 13.9455 9.86515 13.947C9.87335 13.9493 9.88155 13.9516 9.88985 13.9536C9.89454 13.9548 9.89925 13.9558 9.90394 13.9569C9.91274 13.9589 9.92157 13.9609 9.93048 13.9627C9.93497 13.9636 9.93946 13.9643 9.94397 13.9651C9.95306 13.9667 9.96214 13.9683 9.97132 13.9697C9.97603 13.9704 9.98073 13.9709 9.98544 13.9715C9.99438 13.9726 10.0033 13.9738 10.0124 13.9747L10.014 13.9749C10.0196 13.9755 10.0253 13.9757 10.031 13.9761C10.0385 13.9767 10.046 13.9774 10.0536 13.9778C10.0669 13.9784 10.0802 13.9787 10.0935 13.9788L10.0953 13.9788H10.0954C10.1095 13.9788 10.1235 13.9784 10.1376 13.9777C10.1432 13.9775 10.1488 13.9769 10.1544 13.9765C10.1626 13.976 10.1709 13.9755 10.1791 13.9747C10.1863 13.9739 10.1935 13.973 10.2008 13.9721C10.2072 13.9713 10.2137 13.9706 10.2201 13.9696C10.228 13.9684 10.2357 13.967 10.2434 13.9657C10.2493 13.9646 10.2552 13.9637 10.261 13.9625C10.2688 13.961 10.2764 13.9592 10.2841 13.9575C10.29 13.9562 10.2958 13.9549 10.3017 13.9534C10.3089 13.9516 10.3161 13.9496 10.3233 13.9476C10.3296 13.9458 10.3359 13.9441 10.3422 13.9422C10.3486 13.9403 10.3549 13.9382 10.3613 13.9361C10.3683 13.9338 10.3753 13.9315 10.3823 13.929C10.3876 13.9271 10.3929 13.925 10.3982 13.923C10.4061 13.92 10.414 13.9169 10.4218 13.9137C10.426 13.9119 10.4301 13.9101 10.4342 13.9083C10.4431 13.9044 10.4518 13.9005 10.4606 13.8964C10.4636 13.8949 10.4665 13.8934 10.4695 13.8919C10.4791 13.8872 10.4887 13.8824 10.4982 13.8773C10.5002 13.8762 10.5021 13.875 10.5041 13.8739C10.5143 13.8683 10.5245 13.8625 10.5345 13.8565C10.5357 13.8558 10.5368 13.855 10.538 13.8543C10.5486 13.8478 10.5591 13.8411 10.5694 13.8341L10.571 13.833C10.6157 13.8028 10.6573 13.7684 10.6955 13.7303C10.6978 13.728 10.7 13.7255 10.7023 13.7231L14.5711 9.8544C14.9025 9.52301 14.9025 8.98575 14.5711 8.65438Z" fill="#010101"/>
</g>
</svg>
