<svg width="28" height="28" viewBox="0 0 28 28" fill="none" xmlns="http://www.w3.org/2000/svg">
<g id="hugeicons:ai-editing">
<path id="Vector" d="M6.81094 11.8813C7.03261 12.453 7.55761 12.8263 8.17594 12.8263C8.79428 12.8263 9.33094 12.453 9.54094 11.8813L10.3693 9.64131C10.3926 9.55965 10.4509 9.50131 10.5326 9.47798L12.7726 8.64965C13.3443 8.42798 13.7176 7.90298 13.7176 7.28465C13.7176 6.66631 13.3443 6.12965 12.7726 5.91965L10.5326 5.09131C10.4953 5.07727 10.4615 5.05544 10.4333 5.02728C10.4051 4.99911 10.3833 4.96526 10.3693 4.92798L9.54094 2.68798C9.31928 2.11631 8.79428 1.74298 8.17594 1.74298C7.55761 1.74298 7.02094 2.11631 6.81094 2.68798L5.98261 4.92798C5.95928 5.00965 5.90094 5.06798 5.81928 5.09131L3.57928 5.91965C3.00761 6.14131 2.63428 6.66631 2.63428 7.28465C2.63428 7.90298 3.00761 8.43965 3.57928 8.64965L5.81928 9.47798C5.90094 9.51298 5.95928 9.57131 5.98261 9.64131L6.81094 11.8813ZM6.42594 7.83298L4.94428 7.28465L6.42594 6.73631C6.98594 6.52631 7.41761 6.09465 7.62761 5.53465L8.17594 4.05298L8.72428 5.53465C8.93428 6.08298 9.37761 6.52631 9.92594 6.72465L11.4076 7.27298L9.92594 7.82131C9.36594 8.03131 8.93428 8.46298 8.72428 9.02298L8.17594 10.5046L7.62761 9.02298C7.41761 8.47465 6.97428 8.03132 6.42594 7.83298ZM6.13428 25.9513C6.13428 26.4297 6.53094 26.8263 7.00928 26.8263H8.75928L8.74761 26.838C10.2293 26.838 11.0459 26.838 11.8393 26.5113C12.6326 26.1847 13.2043 25.613 14.2543 24.563L23.7626 15.0546L23.8163 15.001C24.4474 14.3593 24.8079 13.993 25.0343 13.5391C25.4776 12.6525 25.4776 11.6025 25.0343 10.7158C24.8219 10.2573 24.4708 9.90615 23.8466 9.28315L23.7626 9.19915L23.7078 9.14548C23.0661 8.51315 22.6998 8.15382 22.2459 7.92748C21.3593 7.48415 20.3093 7.48415 19.4226 7.92748C18.9641 8.13981 18.6129 8.49098 17.9899 9.11398L17.9059 9.19915L16.1793 10.9258L8.40928 18.6958C7.37094 19.7342 6.78761 20.3175 6.46094 21.1108C6.13428 21.9041 6.13428 22.7208 6.13428 24.2025V25.9513ZM7.89594 25.0763V24.213C7.89594 22.9063 7.89594 22.2646 8.09428 21.7863C8.29261 21.308 8.74761 20.853 9.66928 19.9313L16.8326 12.768L17.9409 13.8763C18.2793 14.2146 18.8393 14.2146 19.1776 13.8763C19.5159 13.538 19.5159 12.978 19.1776 12.6396L18.0693 11.5313L19.1776 10.423C19.7026 9.89798 20.0176 9.58298 20.2276 9.47798C20.6243 9.27965 21.1026 9.27965 21.4993 9.47798C21.7093 9.58298 22.0243 9.89798 22.5493 10.423C23.0743 10.948 23.3893 11.263 23.4943 11.473C23.6926 11.8696 23.6926 12.348 23.4943 12.7446C23.3893 12.9546 23.0743 13.2696 22.5493 13.7946L13.0409 23.303C12.0609 24.283 11.6409 24.6913 11.1859 24.878C10.7076 25.0763 10.0543 25.0763 8.75928 25.0763H7.89594Z" fill="#010101"/>
</g>
</svg>
