<svg width="212" height="119" viewBox="0 0 212 119" fill="none" xmlns="http://www.w3.org/2000/svg">
<g id="Group 1">
<g id="bg">
<path id="Vector" d="M90.6641 105.71C116.889 105.71 138.149 84.8304 138.149 59.0735C138.149 33.3166 116.889 12.4365 90.6641 12.4365C64.4389 12.4365 43.1792 33.3166 43.1792 59.0735C43.1792 84.8304 64.4389 105.71 90.6641 105.71Z" fill="url(#paint0_linear_76_3213)"/>
<path id="Vector_2" d="M33.3561 71.6309C24.9901 63.2607 21.7438 55.1048 24.1852 48.4444C26.5909 41.8777 34.3801 37.5207 46.0952 36.1859C46.2227 36.1705 46.3521 36.1808 46.4755 36.2163C46.5989 36.2518 46.7139 36.3117 46.8136 36.3926C46.9134 36.4734 46.9958 36.5734 47.0559 36.6867C47.1161 36.8 47.1528 36.9242 47.1639 37.052C47.1877 37.3143 47.1073 37.5755 46.94 37.7793C46.7727 37.983 46.532 38.113 46.2696 38.1412C35.3414 39.3867 28.1603 43.2749 26.0319 49.0738C24.8694 52.2656 25.2181 55.8905 27.0872 59.8725C28.9562 63.8545 32.1891 67.957 36.7365 72.1175C46.1981 80.7645 60.14 88.5722 76.0225 94.0854C91.905 99.5986 107.77 102.174 120.737 101.322C126.965 100.911 132.152 99.7191 136.168 97.804C140.183 95.8889 142.826 93.2863 143.993 90.1034C145.643 85.6393 144.225 80.1574 139.901 74.3049C139.824 74.2003 139.767 74.0814 139.735 73.955C139.704 73.8286 139.697 73.6972 139.716 73.5682C139.755 73.3079 139.895 73.0735 140.107 72.9166C140.319 72.7597 140.584 72.6932 140.845 72.7317C141.106 72.7703 141.34 72.9106 141.498 73.122C146.219 79.5324 147.722 85.6215 145.839 90.7463C143.201 97.9379 134.321 102.384 120.826 103.286C107.618 104.152 91.4758 101.554 75.3473 95.9514C59.2189 90.3489 45.0266 82.4028 35.3817 73.5728C34.6797 72.93 34 72.2738 33.3561 71.6309Z" fill="url(#paint1_linear_76_3213)"/>
<path id="Vector_3" d="M64.0952 64.4438C68.7782 64.4438 72.5746 60.6474 72.5746 55.9643C72.5746 51.2812 68.7782 47.4849 64.0952 47.4849C59.4121 47.4849 55.6157 51.2812 55.6157 55.9643C55.6157 60.6474 59.4121 64.4438 64.0952 64.4438Z" fill="#E4E4E4"/>
<path id="Vector_4" d="M85.0109 37.3096C88.1329 37.3096 90.6638 34.9052 90.6638 31.9393C90.6638 28.9733 88.1329 26.569 85.0109 26.569C81.8888 26.569 79.3579 28.9733 79.3579 31.9393C79.3579 34.9052 81.8888 37.3096 85.0109 37.3096Z" fill="#DCDCDC"/>
<path id="Vector_5" d="M108.188 49.1808C110.373 49.1808 112.145 47.5357 112.145 45.5063C112.145 43.477 110.373 41.8319 108.188 41.8319C106.003 41.8319 104.231 43.477 104.231 45.5063C104.231 47.5357 106.003 49.1808 108.188 49.1808Z" fill="#E0E0E0"/>
<path id="Vector_6" d="M169.331 48.0504C169.121 47.9286 168.968 47.7292 168.905 47.4954C168.841 47.2616 168.873 47.0121 168.992 46.8011L171.75 42.03C171.81 41.9251 171.89 41.833 171.986 41.7592C172.082 41.6853 172.191 41.6312 172.308 41.5998C172.425 41.5685 172.547 41.5606 172.666 41.5765C172.786 41.5925 172.902 41.632 173.006 41.6928C173.111 41.7537 173.202 41.8346 173.275 41.9309C173.348 42.0272 173.401 42.137 173.432 42.2541C173.462 42.3711 173.469 42.4929 173.452 42.6126C173.435 42.7323 173.395 42.8475 173.333 42.9515L170.586 47.7169C170.463 47.9269 170.262 48.0798 170.027 48.1423C169.792 48.2048 169.542 48.1718 169.331 48.0504ZM160.388 46.4167C160.178 46.2939 160.025 46.0931 159.962 45.858C159.9 45.6229 159.933 45.3726 160.054 45.1618L163.418 39.3392C163.486 39.2399 163.574 39.155 163.675 39.0896C163.776 39.0241 163.89 38.9793 164.008 38.9578C164.127 38.9362 164.249 38.9384 164.367 38.9641C164.485 38.9898 164.596 39.0385 164.695 39.1075C164.872 39.2291 165 39.4096 165.056 39.6167C165.112 39.8238 165.092 40.044 165.001 40.238L161.643 46.0662C161.521 46.2759 161.321 46.4287 161.087 46.4912C160.853 46.5537 160.603 46.5208 160.393 46.3998L160.388 46.4167ZM155.114 38.4291C154.905 38.3094 154.752 38.1121 154.689 37.8801C154.625 37.6481 154.656 37.4004 154.774 37.1911L157.527 32.4256C157.585 32.3199 157.663 32.2264 157.756 32.1507C157.85 32.075 157.958 32.0185 158.073 31.9844C158.189 31.9502 158.31 31.9392 158.429 31.9519C158.549 31.9645 158.665 32.0007 158.771 32.0582C158.877 32.1157 158.97 32.1935 159.046 32.2872C159.122 32.3808 159.178 32.4885 159.212 32.6039C159.246 32.7194 159.258 32.8405 159.245 32.9602C159.232 33.08 159.196 33.1961 159.139 33.3019C159.14 33.315 159.14 33.3283 159.139 33.3414L156.391 38.1069C156.329 38.2124 156.246 38.3045 156.148 38.3779C156.05 38.4513 155.938 38.5045 155.82 38.5344C155.701 38.5644 155.577 38.5705 155.456 38.5524C155.335 38.5344 155.218 38.4924 155.114 38.4291Z" fill="url(#paint2_linear_76_3213)"/>
<path id="Vector_7" d="M188.5 41.0521C189.37 39.5484 185.673 36.1453 178.89 31.5664C179.022 31.4024 179.141 31.2285 179.246 31.0464L180.744 28.446C181.365 27.3933 181.772 26.2288 181.943 25.0187C182.113 23.8087 182.044 22.5769 181.738 21.3937C181.433 20.2105 180.897 19.099 180.162 18.1228C179.427 17.1466 178.507 16.3248 177.454 15.7042L176.787 15.3142C174.637 14.1054 172.096 13.7985 169.72 14.4608C167.344 15.1232 165.328 16.7006 164.113 18.8473L162.609 21.442C162.547 21.5494 162.496 21.6455 162.445 21.7416C155.735 18.6438 150.659 17.3323 149.851 18.7342C148.72 20.7014 156.442 27.2984 167.115 33.4602C177.788 39.6219 187.369 43.025 188.5 41.0521Z" fill="url(#paint3_linear_76_3213)"/>
<path id="Vector_8" d="M180.75 28.446C181.244 27.6111 181.603 26.7028 181.812 25.7552C172.315 22.7139 166.792 17.6601 165.792 16.7104C165.122 17.3417 164.55 18.0696 164.096 18.8699L163.7 19.5595C168.396 24.0373 174.062 27.3705 180.258 29.2996L180.75 28.446Z" fill="url(#paint4_linear_76_3213)"/>
</g>
</g>
<defs>
<linearGradient id="paint0_linear_76_3213" x1="90.6641" y1="105.71" x2="90.6641" y2="12.4365" gradientUnits="userSpaceOnUse">
<stop stop-color="white" stop-opacity="0"/>
<stop offset="0.06" stop-color="#FCFCFC" stop-opacity="0.1"/>
<stop offset="0.19" stop-color="#F5F5F5" stop-opacity="0.34"/>
<stop offset="0.33" stop-color="#F0F0F0" stop-opacity="0.54"/>
<stop offset="0.47" stop-color="#EBEBEB" stop-opacity="0.71"/>
<stop offset="0.6" stop-color="#E8E8E8" stop-opacity="0.84"/>
<stop offset="0.74" stop-color="#E5E5E5" stop-opacity="0.93"/>
<stop offset="0.87" stop-color="#E4E4E4" stop-opacity="0.98"/>
<stop offset="1" stop-color="#E3E3E3"/>
</linearGradient>
<linearGradient id="paint1_linear_76_3213" x1="72.842" y1="95.6337" x2="93.7293" y2="50.7648" gradientUnits="userSpaceOnUse">
<stop stop-color="#D8DDE1" stop-opacity="0.6"/>
<stop offset="0.17" stop-color="#D9DEE2" stop-opacity="0.58"/>
<stop offset="0.34" stop-color="#DDE1E5" stop-opacity="0.53"/>
<stop offset="0.52" stop-color="#E3E6E9" stop-opacity="0.43"/>
<stop offset="0.69" stop-color="#EBEEF0" stop-opacity="0.3"/>
<stop offset="0.87" stop-color="#F6F7F8" stop-opacity="0.14"/>
<stop offset="1" stop-color="white" stop-opacity="0"/>
</linearGradient>
<linearGradient id="paint2_linear_76_3213" x1="160.969" y1="46.6899" x2="166.189" y2="35.4976" gradientUnits="userSpaceOnUse">
<stop stop-color="white" stop-opacity="0"/>
<stop offset="0.06" stop-color="#FCFCFC" stop-opacity="0.1"/>
<stop offset="0.19" stop-color="#F5F5F5" stop-opacity="0.34"/>
<stop offset="0.33" stop-color="#F0F0F0" stop-opacity="0.54"/>
<stop offset="0.47" stop-color="#EBEBEB" stop-opacity="0.71"/>
<stop offset="0.6" stop-color="#E8E8E8" stop-opacity="0.84"/>
<stop offset="0.74" stop-color="#E5E5E5" stop-opacity="0.93"/>
<stop offset="0.87" stop-color="#E4E4E4" stop-opacity="0.98"/>
<stop offset="1" stop-color="#E3E3E3"/>
</linearGradient>
<linearGradient id="paint3_linear_76_3213" x1="167.116" y1="33.459" x2="177.393" y2="15.6592" gradientUnits="userSpaceOnUse">
<stop stop-color="white" stop-opacity="0"/>
<stop offset="0.02" stop-color="#FDFDFD" stop-opacity="0.09"/>
<stop offset="0.07" stop-color="#F7F7F7" stop-opacity="0.28"/>
<stop offset="0.13" stop-color="#F2F2F2" stop-opacity="0.45"/>
<stop offset="0.19" stop-color="#EEEEEE" stop-opacity="0.6"/>
<stop offset="0.26" stop-color="#EBEBEB" stop-opacity="0.72"/>
<stop offset="0.34" stop-color="#E8E8E8" stop-opacity="0.83"/>
<stop offset="0.42" stop-color="#E6E6E6" stop-opacity="0.9"/>
<stop offset="0.53" stop-color="#E4E4E4" stop-opacity="0.96"/>
<stop offset="0.67" stop-color="#E3E3E3" stop-opacity="0.99"/>
<stop offset="1" stop-color="#E3E3E3"/>
</linearGradient>
<linearGradient id="paint4_linear_76_3213" x1="170.094" y1="25.9162" x2="176.034" y2="19.9763" gradientUnits="userSpaceOnUse">
<stop stop-color="#F0F0F0"/>
<stop offset="1" stop-color="white"/>
</linearGradient>
</defs>
</svg>
