<svg width="20" height="20" viewBox="0 0 20 20" fill="none" xmlns="http://www.w3.org/2000/svg">
<g id="Icons">
<rect width="20" height="20" rx="10" fill="#F54E51"/>
<g id="Icons_2">
<g id="close-circle">
<path id="Vector" d="M8.11357 12.3867C7.9869 12.3867 7.86023 12.34 7.76023 12.24C7.5669 12.0467 7.5669 11.7267 7.76023 11.5333L11.5336 7.76001C11.7269 7.56667 12.0469 7.56667 12.2402 7.76001C12.4336 7.95334 12.4336 8.27334 12.2402 8.46667L8.4669 12.24C8.37357 12.34 8.24023 12.3867 8.11357 12.3867Z" fill="white"/>
<path id="Vector_2" d="M11.8869 12.3867C11.7602 12.3867 11.6336 12.34 11.5336 12.24L7.76023 8.46667C7.5669 8.27334 7.5669 7.95334 7.76023 7.76001C7.95357 7.56667 8.27357 7.56667 8.4669 7.76001L12.2402 11.5333C12.4336 11.7267 12.4336 12.0467 12.2402 12.24C12.1402 12.34 12.0136 12.3867 11.8869 12.3867Z" fill="white"/>
</g>
</g>
</g>
</svg>
