<svg width="16" height="16" viewBox="0 0 16 16" fill="none" xmlns="http://www.w3.org/2000/svg">
<g id="&#231;&#188;&#150;&#232;&#190;&#145; (1) 2">
<path id="Vector" d="M7.33333 2C7.51013 2.00003 7.67967 2.07028 7.80467 2.1953C7.92967 2.32032 7.9999 2.48987 7.9999 2.66667C7.9999 2.84346 7.92967 3.01301 7.80467 3.13804C7.67967 3.26306 7.51013 3.33331 7.33333 3.33333H3.33333V12.6667H12.6667V8.66667L12.6713 8.58867C12.6914 8.41994 12.7751 8.26524 12.9054 8.15618C13.0357 8.04712 13.2028 7.99193 13.3724 8.00189C13.542 8.01184 13.7015 8.0862 13.8181 8.20975C13.9347 8.33331 13.9998 8.49675 14 8.66667V12.6667C14 13.0203 13.8595 13.3594 13.6095 13.6095C13.3594 13.8595 13.0203 14 12.6667 14H3.33333C2.97971 14 2.64057 13.8595 2.39052 13.6095C2.14048 13.3594 2 13.0203 2 12.6667V3.33333C2 2.97971 2.14048 2.64057 2.39052 2.39052C2.64057 2.14048 2.97971 2 3.33333 2H7.33333ZM13.8133 2.19533C13.9383 2.32035 14.0085 2.48989 14.0085 2.66667C14.0085 2.84344 13.9383 3.01298 13.8133 3.138L7.68533 9.26667C7.5596 9.3881 7.3912 9.4553 7.2164 9.45378C7.0416 9.45226 6.87439 9.38215 6.75079 9.25855C6.62718 9.13494 6.55707 8.96773 6.55555 8.79293C6.55403 8.61814 6.62123 8.44974 6.74267 8.324L12.8707 2.196C12.9957 2.07102 13.1652 2.00081 13.342 2.00081C13.5188 2.00081 13.6883 2.07102 13.8133 2.196V2.19533Z" fill="#010101"/>
</g>
</svg>
