<svg width="24" height="22" viewBox="0 0 24 22" fill="none" xmlns="http://www.w3.org/2000/svg">
<g id="Frame 165">
<g id="&#229;&#189;&#162;&#231;&#138;&#182;&#231;&#187;&#147;&#229;&#144;&#136;">
<path d="M12.0127 2.1604C15.8217 2.16049 18.2973 4.3765 19.1709 7.68481C19.1988 7.6827 19.2273 7.68188 19.2559 7.68188C19.3018 7.68191 19.348 7.68493 19.3936 7.69067L20.5928 7.84204C21.9697 8.01561 23 9.15059 23 10.4944V11.3909C22.9999 12.7276 21.9648 13.8519 20.5928 14.0061L19.3789 14.1428C19.2673 14.1554 19.1575 14.1506 19.0527 14.1311C18.5874 15.7317 17.409 16.929 15.5391 17.6858C15.2666 17.796 14.953 17.672 14.8389 17.4084C14.7249 17.1447 14.8534 16.841 15.126 16.7307C17.0264 15.9617 18.0298 14.7241 18.1855 12.9543V9.44849C17.8297 5.83615 15.6603 3.40269 12.0127 3.40259C8.26518 3.40259 6.0768 5.97084 5.81348 9.74731L5.8125 13.1702L5.80762 13.2297C5.73949 13.7978 5.20807 14.2048 4.62109 14.1389L3.40723 14.0022C2.03514 13.848 1.00003 12.7237 1 11.387V10.4905C1.00004 9.14671 2.03031 8.01169 3.40723 7.83813L4.60645 7.68677C4.65203 7.68103 4.69817 7.678 4.74414 7.67798C4.781 7.67798 4.81762 7.68032 4.85352 7.68384C5.72731 4.3759 8.2039 2.1604 12.0127 2.1604ZM19.4688 9.38794C19.5274 10.0091 19.5389 10.6568 19.5 11.3254C19.4969 11.3786 19.4846 11.4292 19.4688 11.4778V12.8811L20.4453 12.7727C21.1214 12.6965 21.6424 12.1736 21.709 11.5305L21.7168 11.3909V10.4944C21.7168 9.82283 21.2357 9.24813 20.5723 9.09888L20.4268 9.07349L19.4688 8.95239V9.38794ZM3.57324 9.06958L3.42773 9.09497C2.76428 9.24419 2.28324 9.81894 2.2832 10.4905V11.387L2.29102 11.5266C2.35756 12.1698 2.87858 12.6926 3.55469 12.7688L4.53027 12.8772V11.3606C4.52892 11.349 4.5251 11.3373 4.52441 11.3254C4.49251 10.7767 4.49636 10.2423 4.53027 9.72485V8.94751L3.57324 9.06958Z" fill="#010101"/>
<path d="M12.0127 2.1604L12.0127 1.99991H12.0127V2.1604ZM19.1709 7.68481L19.0157 7.72579L19.0498 7.85494L19.183 7.84485L19.1709 7.68481ZM19.2559 7.68188L19.256 7.52139H19.2559V7.68188ZM19.3936 7.69067L19.4137 7.53145L19.4136 7.53144L19.3936 7.69067ZM20.5928 7.84204L20.5727 8.00127L20.5727 8.00127L20.5928 7.84204ZM23 11.3909L23.1605 11.3909V11.3909H23ZM20.5928 14.0061L20.5748 13.8466L20.5748 13.8466L20.5928 14.0061ZM19.3789 14.1428L19.3968 14.3023L19.3969 14.3023L19.3789 14.1428ZM19.0527 14.1311L19.0821 13.9733L18.9392 13.9467L18.8986 14.0863L19.0527 14.1311ZM15.5391 17.6858L15.5993 17.8346L15.5993 17.8346L15.5391 17.6858ZM14.8389 17.4084L14.6915 17.4721L14.6916 17.4722L14.8389 17.4084ZM15.126 16.7307L15.1862 16.8795L15.1862 16.8795L15.126 16.7307ZM18.1855 12.9543L18.346 12.9685V12.9543H18.1855ZM18.1855 9.44849H18.346V9.4406L18.3453 9.43275L18.1855 9.44849ZM12.0127 3.40259L12.0127 3.2421H12.0127V3.40259ZM5.81348 9.74731L5.65299 9.73612L5.65299 9.74727L5.81348 9.74731ZM5.8125 13.1702L5.97299 13.1833L5.97299 13.1702L5.8125 13.1702ZM5.80762 13.2297L5.96708 13.2489L5.96757 13.2428L5.80762 13.2297ZM4.62109 14.1389L4.60313 14.2984L4.60318 14.2984L4.62109 14.1389ZM3.40723 14.0022L3.42519 13.8427L3.42515 13.8427L3.40723 14.0022ZM1 11.387H0.839509V11.387L1 11.387ZM1 10.4905L0.839509 10.4905V10.4905H1ZM3.40723 7.83813L3.4273 7.99737L3.42732 7.99736L3.40723 7.83813ZM4.60645 7.68677L4.58639 7.52753L4.58635 7.52754L4.60645 7.68677ZM4.74414 7.67798V7.51749H4.74405L4.74414 7.67798ZM4.85352 7.68384L4.83785 7.84356L4.9738 7.85689L5.00868 7.72483L4.85352 7.68384ZM19.4688 9.38794H19.3083V9.3955L19.309 9.40302L19.4688 9.38794ZM19.5 11.3254L19.6602 11.3348V11.3348L19.5 11.3254ZM19.4688 11.4778L19.3162 11.4279L19.3083 11.4522V11.4778H19.4688ZM19.4688 12.8811H19.3083V13.0604L19.4865 13.0406L19.4688 12.8811ZM20.4453 12.7727L20.463 12.9322L20.4633 12.9322L20.4453 12.7727ZM21.709 11.5305L21.8688 11.5471L21.8692 11.5395L21.709 11.5305ZM21.7168 11.3909L21.8773 11.3998V11.3909H21.7168ZM20.5723 9.09888L20.6075 8.94211L20.5999 8.94077L20.5723 9.09888ZM20.4268 9.07349L20.4544 8.91521L20.4469 8.91426L20.4268 9.07349ZM19.4688 8.95239L19.4889 8.79317L19.3083 8.77034V8.95239H19.4688ZM3.57324 9.06958L3.55291 8.91021L3.54565 8.91148L3.57324 9.06958ZM3.42773 9.09497L3.40011 8.93668L3.39252 8.93839L3.42773 9.09497ZM2.2832 10.4905L2.12271 10.4905V10.4905H2.2832ZM2.2832 11.387H2.12246L2.12296 11.3959L2.2832 11.387ZM2.29102 11.5266L2.1306 11.5356L2.13138 11.5431L2.29102 11.5266ZM3.55469 12.7688L3.53671 12.9283L3.53696 12.9283L3.55469 12.7688ZM4.53027 12.8772L4.51255 13.0367L4.69076 13.0565V12.8772H4.53027ZM4.53027 11.3606H4.69076V11.3513L4.68969 11.342L4.53027 11.3606ZM4.52441 11.3254L4.36419 11.3348L4.36419 11.3348L4.52441 11.3254ZM4.53027 9.72485L4.69076 9.73537V9.72485H4.53027ZM4.53027 8.94751H4.69076V8.76525L4.50997 8.78831L4.53027 8.94751ZM12.0127 2.1604L12.0127 2.32089C13.8848 2.32094 15.4194 2.86495 16.592 3.80714C17.7655 4.74993 18.5863 6.09937 19.0157 7.72579L19.1709 7.68481L19.3261 7.64384C18.882 5.96195 18.0281 4.54922 16.7931 3.55691C15.5573 2.56399 13.9496 1.99996 12.0127 1.99991L12.0127 2.1604ZM19.1709 7.68481L19.183 7.84485C19.206 7.84311 19.2303 7.84238 19.2559 7.84238V7.68188V7.52139C19.2244 7.52139 19.1917 7.52228 19.1588 7.52478L19.1709 7.68481ZM19.2559 7.68188L19.2558 7.84238C19.2948 7.8424 19.3343 7.84497 19.3735 7.84991L19.3936 7.69067L19.4136 7.53144C19.3617 7.5249 19.3089 7.52142 19.256 7.52139L19.2559 7.68188ZM19.3936 7.69067L19.3735 7.8499L20.5727 8.00127L20.5928 7.84204L20.6129 7.68281L19.4137 7.53145L19.3936 7.69067ZM20.5928 7.84204L20.5727 8.00127C21.8735 8.16524 22.8395 9.23552 22.8395 10.4944H23H23.1605C23.1605 9.06567 22.0659 7.86598 20.6128 7.68281L20.5928 7.84204ZM23 10.4944H22.8395V11.3909H23H23.1605V10.4944H23ZM23 11.3909L22.8395 11.3909C22.8394 12.6417 21.8699 13.7011 20.5748 13.8466L20.5928 14.0061L20.6107 14.1656C22.0597 14.0027 23.1603 12.8134 23.1605 11.3909L23 11.3909ZM20.5928 14.0061L20.5748 13.8466L19.3609 13.9833L19.3789 14.1428L19.3969 14.3023L20.6107 14.1656L20.5928 14.0061ZM19.3789 14.1428L19.361 13.9833C19.2655 13.9941 19.1716 13.99 19.0821 13.9733L19.0527 14.1311L19.0234 14.2889C19.1434 14.3112 19.2691 14.3167 19.3968 14.3023L19.3789 14.1428ZM19.0527 14.1311L18.8986 14.0863C18.4499 15.63 17.3135 16.7945 15.4789 17.537L15.5391 17.6858L15.5993 17.8346C17.5046 17.0635 18.725 15.8334 19.2068 14.1759L19.0527 14.1311ZM15.5391 17.6858L15.4789 17.537C15.2839 17.6159 15.0642 17.525 14.9861 17.3447L14.8389 17.4084L14.6916 17.4722C14.8417 17.819 15.2493 17.9762 15.5993 17.8346L15.5391 17.6858ZM14.8389 17.4084L14.9862 17.3448C14.9093 17.1669 14.9939 16.9573 15.1862 16.8795L15.126 16.7307L15.0658 16.5819C14.7129 16.7247 14.5404 17.1224 14.6915 17.4721L14.8389 17.4084ZM15.126 16.7307L15.1862 16.8795C16.1547 16.4875 16.9056 15.9718 17.4347 15.3188C17.9648 14.6646 18.265 13.8816 18.3454 12.9684L18.1855 12.9543L18.0257 12.9403C17.9503 13.7969 17.6709 14.5175 17.1853 15.1168C16.6987 15.7173 15.9977 16.2048 15.0658 16.5819L15.126 16.7307ZM18.1855 12.9543H18.346V9.44849H18.1855H18.0251V12.9543H18.1855ZM18.1855 9.44849L18.3453 9.43275C18.1646 7.59929 17.5223 6.05037 16.4479 4.9584C15.3716 3.86438 13.8745 3.24215 12.0127 3.2421L12.0127 3.40259L12.0127 3.56308C13.7985 3.56313 15.2099 4.15768 16.2191 5.18351C17.2304 6.21137 17.8506 7.68535 18.0258 9.46422L18.1855 9.44849ZM12.0127 3.40259V3.2421C10.0997 3.2421 8.57172 3.89892 7.48964 5.04879C6.40983 6.19624 5.78693 7.82074 5.65337 9.73615L5.81348 9.74731L5.97358 9.75848C6.10335 7.89742 6.70631 6.34956 7.72339 5.26876C8.73821 4.19038 10.1781 3.56308 12.0127 3.56308V3.40259ZM5.81348 9.74731L5.65299 9.74727L5.65201 13.1701L5.8125 13.1702L5.97299 13.1702L5.97397 9.74736L5.81348 9.74731ZM5.8125 13.1702L5.65255 13.1571L5.64766 13.2166L5.80762 13.2297L5.96757 13.2428L5.97245 13.1833L5.8125 13.1702ZM5.80762 13.2297L5.64827 13.2106C5.59121 13.6864 5.1432 14.0361 4.63901 13.9794L4.62109 14.1389L4.60318 14.2984C5.27293 14.3736 5.88777 13.9092 5.96697 13.2488L5.80762 13.2297ZM4.62109 14.1389L4.63906 13.9794L3.42519 13.8427L3.40723 14.0022L3.38926 14.1617L4.60313 14.2984L4.62109 14.1389ZM3.40723 14.0022L3.42515 13.8427C2.13005 13.6971 1.16052 12.6379 1.16049 11.387L1 11.387L0.839509 11.387C0.839544 12.8096 1.94023 13.9988 3.3893 14.1617L3.40723 14.0022ZM1 11.387H1.16049V10.4905H1H0.839509V11.387H1ZM1 10.4905L1.16049 10.4905C1.16053 9.23163 2.12654 8.16132 3.4273 7.99737L3.40723 7.83813L3.38716 7.6789C1.93408 7.86206 0.839553 9.06179 0.839509 10.4905L1 10.4905ZM3.40723 7.83813L3.42732 7.99736L4.62654 7.846L4.60645 7.68677L4.58635 7.52754L3.38713 7.67891L3.40723 7.83813ZM4.60645 7.68677L4.6265 7.846C4.66573 7.84106 4.7052 7.83849 4.74423 7.83847L4.74414 7.67798L4.74405 7.51749C4.69115 7.51752 4.63833 7.52099 4.58639 7.52753L4.60645 7.68677ZM4.74414 7.67798V7.83847C4.77433 7.83847 4.80551 7.84039 4.83785 7.84356L4.85352 7.68384L4.86918 7.52411C4.82973 7.52024 4.78766 7.51749 4.74414 7.51749V7.67798ZM4.85352 7.68384L5.00868 7.72483C5.43825 6.0986 6.25932 4.74939 7.43298 3.80677C8.60588 2.86476 10.1407 2.32089 12.0127 2.32089V2.1604V1.99991C10.0759 1.99991 8.46803 2.56379 7.23199 3.55651C5.9967 4.54862 5.14258 5.96113 4.69835 7.64285L4.85352 7.68384ZM19.4688 9.38794L19.309 9.40302C19.3668 10.0158 19.3782 10.6553 19.3398 11.3161L19.5 11.3254L19.6602 11.3348C19.6996 10.6583 19.688 10.0025 19.6285 9.37286L19.4688 9.38794ZM19.5 11.3254L19.3398 11.3161C19.3378 11.3508 19.3296 11.3871 19.3162 11.4279L19.4688 11.4778L19.6213 11.5276C19.6397 11.4714 19.656 11.4065 19.6602 11.3348L19.5 11.3254ZM19.4688 11.4778H19.3083V12.8811H19.4688H19.6292V11.4778H19.4688ZM19.4688 12.8811L19.4865 13.0406L20.463 12.9322L20.4453 12.7727L20.4276 12.6132L19.451 12.7216L19.4688 12.8811ZM20.4453 12.7727L20.4633 12.9322C21.2115 12.8479 21.7939 12.2679 21.8686 11.5471L21.709 11.5305L21.5493 11.514C21.4908 12.0793 21.0312 12.5452 20.4273 12.6132L20.4453 12.7727ZM21.709 11.5305L21.8692 11.5395L21.877 11.3998L21.7168 11.3909L21.5566 11.3819L21.5487 11.5216L21.709 11.5305ZM21.7168 11.3909H21.8773V10.4944H21.7168H21.5563V11.3909H21.7168ZM21.7168 10.4944H21.8773C21.8773 9.74367 21.3401 9.10711 20.6075 8.9423L20.5723 9.09888L20.537 9.25546C21.1313 9.38915 21.5563 9.902 21.5563 10.4944H21.7168ZM20.5723 9.09888L20.5999 8.94077L20.4543 8.91538L20.4268 9.07349L20.3992 9.23159L20.5447 9.25698L20.5723 9.09888ZM20.4268 9.07349L20.4469 8.91426L19.4889 8.79317L19.4688 8.95239L19.4486 9.11162L20.4066 9.23271L20.4268 9.07349ZM19.4688 8.95239H19.3083V9.38794H19.4688H19.6292V8.95239H19.4688ZM3.57324 9.06958L3.54565 8.91148L3.40015 8.93687L3.42773 9.09497L3.45532 9.25307L3.60083 9.22768L3.57324 9.06958ZM3.42773 9.09497L3.39252 8.93839C2.65988 9.10317 2.12276 9.73979 2.12271 10.4905L2.2832 10.4905L2.44369 10.4905C2.44373 9.89809 2.86868 9.38521 3.46295 9.25155L3.42773 9.09497ZM2.2832 10.4905H2.12271V11.387H2.2832H2.44369V10.4905H2.2832ZM2.2832 11.387L2.12296 11.3959L2.13078 11.5356L2.29102 11.5266L2.45126 11.5176L2.44344 11.378L2.2832 11.387ZM2.29102 11.5266L2.13138 11.5431C2.20597 12.2641 2.78844 12.8439 3.53671 12.9283L3.55469 12.7688L3.57266 12.6093C2.96873 12.5412 2.50915 12.0755 2.45065 11.5101L2.29102 11.5266ZM3.55469 12.7688L3.53696 12.9283L4.51255 13.0367L4.53027 12.8772L4.548 12.7177L3.57241 12.6093L3.55469 12.7688ZM4.53027 12.8772H4.69076V11.3606H4.53027H4.36978V12.8772H4.53027ZM4.53027 11.3606L4.68969 11.342C4.68873 11.3338 4.68747 11.3267 4.68651 11.3217C4.68566 11.3172 4.68456 11.312 4.68427 11.3106C4.68377 11.3082 4.68376 11.308 4.68386 11.3087C4.68398 11.3094 4.6844 11.3121 4.68463 11.3161L4.52441 11.3254L4.36419 11.3348C4.36528 11.3535 4.36867 11.3695 4.36992 11.3756C4.37084 11.38 4.37099 11.3807 4.37126 11.3821C4.37142 11.3829 4.37114 11.3816 4.37086 11.3792L4.53027 11.3606ZM4.52441 11.3254L4.68463 11.3161C4.65312 10.7742 4.65692 10.2464 4.69042 9.73535L4.53027 9.72485L4.37013 9.71436C4.33579 10.2382 4.33189 10.7793 4.36419 11.3348L4.52441 11.3254ZM4.53027 9.72485H4.69076V8.94751H4.53027H4.36978V9.72485H4.53027ZM4.53027 8.94751L4.50997 8.78831L3.55294 8.91038L3.57324 9.06958L3.59355 9.22878L4.55058 9.10671L4.53027 8.94751Z" fill="#010101"/>
</g>
<path id="&#231;&#159;&#169;&#229;&#189;&#162;" d="M13.167 15.3239C14.4554 15.3241 15.4998 16.335 15.5 17.5818C15.5 18.8288 14.4555 19.8404 13.167 19.8405H10.833C9.54449 19.8404 8.5 18.8288 8.5 17.5818C8.50024 16.335 9.54464 15.3241 10.833 15.3239H13.167ZM10.875 16.5612C10.2927 16.5612 9.82056 17.0183 9.82031 17.5818C9.82031 18.1052 10.2274 18.5374 10.752 18.5964L10.875 18.6032H13.125C13.7075 18.6032 14.1797 18.1455 14.1797 17.5818C14.1795 17.0585 13.7724 16.627 13.248 16.5681L13.125 16.5612H10.875Z" fill="#010101"/>
</g>
</svg>
