<svg width="38" height="37" viewBox="0 0 38 37" fill="none" xmlns="http://www.w3.org/2000/svg">
<path id="Vector" d="M36.048 13.6753C36.8853 11.5068 37.2597 9.25151 36.8039 6.9195C36.537 5.55525 35.9472 4.35173 34.9918 3.34982C33.5125 1.79907 31.6456 1.14047 29.5643 1.0195C28.2728 0.944453 27.014 1.15055 25.7845 1.54705C23.4346 2.30423 21.3954 3.62256 19.4708 5.14306C19.0815 5.45052 19.0926 5.4606 18.6639 5.11562C16.9692 3.75193 15.146 2.60273 13.1151 1.82483C11.0787 1.0447 8.98693 0.749559 6.8331 1.23903C4.95895 1.66522 3.40436 2.60441 2.29006 4.21788C1.27213 5.6919 0.96919 7.36586 1.00242 9.12046C1.03399 10.7737 1.38124 12.3715 2.0198 13.8875C2.58082 15.2193 3.19834 16.5286 3.84465 17.8207C4.65158 19.4341 4.79668 21.0661 4.22402 22.786C3.68515 24.4039 3.15569 26.0286 2.88543 27.7227C2.6866 28.966 2.63897 30.2138 2.91976 31.4453C3.43759 33.7129 4.81662 35.1942 7.04743 35.7822C8.62638 36.1989 10.1926 35.9833 11.7117 35.4272C14.2466 34.4992 16.3412 32.8947 18.2458 31.0118C18.7642 30.4994 19.2471 29.9505 19.7478 29.4168C19.7605 29.423 19.781 29.4269 19.7915 29.4392C20.9213 30.8119 22.1691 32.0624 23.5586 33.1668C24.7294 34.0976 25.9761 34.8974 27.3784 35.4272C28.5292 35.8623 29.7155 36.0617 30.9229 35.7615C32.8241 35.2894 34.063 34.0287 34.7498 32.2193C35.3778 30.5655 35.3285 28.8506 34.9348 27.1582C34.6324 25.8589 34.2248 24.5837 33.8421 23.3046C33.5995 22.4936 33.3464 21.6855 33.3242 20.8325C33.2966 19.7623 33.6732 18.7962 34.1229 17.8498C34.7797 16.4654 35.4969 15.1022 36.048 13.6753ZM15.7591 32.0708C14.4831 33.0952 13.1174 33.966 11.5838 34.5417C10.6113 34.9069 9.60776 35.1443 8.5627 35.1135C6.78159 35.0609 5.33112 34.3715 4.36525 32.8028C3.9089 32.0608 3.70952 31.2341 3.63032 30.3711C3.45531 28.4536 3.9532 26.6452 4.4882 24.8407C4.77563 23.8713 5.10184 22.9114 5.33223 21.928C5.64846 20.5777 5.43967 19.2594 4.86812 18.0088C4.36248 16.9028 3.81364 15.8168 3.29304 14.7175C2.59855 13.2502 2.11838 11.7118 1.92897 10.096C1.7379 8.46185 1.8542 6.85398 2.62236 5.36148C3.57992 3.50159 5.16331 2.49184 7.14767 2.08189C9.25719 1.64562 11.2809 2.01357 13.2447 2.83234C15.0635 3.59008 16.6956 4.65919 18.2281 5.89295C18.2779 5.93328 18.3217 5.98144 18.3632 6.0212C17.8249 6.6238 17.2866 7.1872 16.7925 7.78756C15.264 9.64465 14.2184 11.7403 13.8168 14.139C13.3289 17.0523 13.7842 19.8206 15.0812 22.4589C16.1479 24.6279 17.5181 26.5925 19.0184 28.4704C19.076 28.5426 19.1269 28.6199 19.1856 28.7016C18.1527 29.9449 17.0119 31.065 15.7591 32.0708ZM32.5262 19.8698C32.3982 20.7978 32.4675 21.7084 32.7322 22.6023C33.1298 23.9441 33.5602 25.277 33.9395 26.6245C34.2718 27.8056 34.4175 29.0209 34.3084 30.2462C34.1334 32.2142 33.1692 34.0147 31.1854 34.7607C30.0827 35.1751 28.9762 35.0615 27.8851 34.6879C26.3549 34.1637 25.0418 33.2665 23.7984 32.2484C22.009 30.7828 20.5148 29.0382 19.1136 27.2052C17.7601 25.4344 16.5267 23.5863 15.6135 21.5382C15.0934 20.3722 14.7467 19.1552 14.5905 17.88C14.3059 15.5542 14.6731 13.337 15.6506 11.2234C16.4121 9.57745 17.4859 8.15887 18.7957 6.9167C20.7413 5.07138 22.9206 3.58896 25.4151 2.61785C26.5864 2.16142 27.8048 1.87524 29.0343 1.9066C30.5058 1.88252 31.8533 2.19838 33.09 2.93371C34.6224 3.84433 35.5119 5.22707 35.92 6.95143C36.3587 8.80403 36.0757 10.6074 35.5628 12.3967C35.102 14.0046 34.3427 15.4786 33.5845 16.9548C33.1094 17.8795 32.6707 18.8192 32.5262 19.8698Z" fill="#010101" stroke="#010101" stroke-width="2" stroke-miterlimit="10"/>
</svg>
