<svg width="28" height="28" viewBox="0 0 28 28" fill="none" xmlns="http://www.w3.org/2000/svg">
<g id="Frame">
<path id="Vector" d="M22.0936 15.1977L20.1166 14.1176L22.0908 13.0375L23.1709 11.0605L24.251 13.0348L26.2279 14.1148L24.2537 15.1977L23.1737 17.1746L22.0936 15.1977ZM17.9756 21.3144L15.9986 20.2344L17.9729 19.1543L19.0529 17.1773L20.133 19.1543L22.11 20.2344L20.133 21.3144L19.0529 23.2914L17.9756 21.3144ZM6.31076 7.33906L3.65021 5.88437L6.31076 4.42968L7.76545 1.76913L9.22013 4.42968L11.8807 5.88437L9.22013 7.33906L7.76545 10.0023L6.31076 7.33906ZM20.0893 7.91054C20.6334 8.45468 20.9397 9.19296 20.9397 9.96132C20.9397 10.7297 20.6334 11.468 20.0893 12.0121L6.75646 25.3449C6.02912 26.0996 4.94904 26.4004 3.93459 26.1352C2.92013 25.8699 2.12717 25.0769 1.86193 24.0625C1.5967 23.048 1.90021 21.9707 2.65217 21.2406L15.985 7.90781C16.5291 7.36367 17.2674 7.05742 18.0358 7.05742C18.8069 7.06015 19.5451 7.3664 20.0893 7.91054ZM14.6315 15.4109L18.9873 11.0551C19.351 10.6914 19.4959 10.1582 19.3619 9.66054C19.2279 9.16288 18.8397 8.77187 18.342 8.63788C17.8444 8.5039 17.3112 8.64609 16.9475 9.0125L12.5889 13.3711C13.0619 13.4969 13.5104 13.7457 13.8822 14.1203C14.2541 14.4894 14.5029 14.9379 14.6315 15.4109Z" fill="#010101"/>
</g>
</svg>
