<svg width="26" height="26" viewBox="0 0 26 26" fill="none" xmlns="http://www.w3.org/2000/svg">
<g id="Frame">
<path id="Vector" d="M23.9445 13C23.9445 13.3013 23.8851 13.5996 23.7698 13.8779C23.6545 14.1563 23.4856 14.4092 23.2725 14.6222C23.0595 14.8352 22.8066 15.0042 22.5283 15.1195C22.2499 15.2348 21.9516 15.2941 21.6504 15.2941C21.3491 15.2941 21.0508 15.2348 20.7724 15.1195C20.4941 15.0042 20.2412 14.8352 20.0282 14.6222C19.8151 14.4092 19.6462 14.1563 19.5309 13.8779C19.4156 13.5996 19.3562 13.3013 19.3562 13C19.3562 12.3916 19.5979 11.808 20.0282 11.3778C20.4584 10.9476 21.0419 10.7059 21.6504 10.7059C22.2588 10.7059 22.8423 10.9476 23.2725 11.3778C23.7028 11.808 23.9445 12.3916 23.9445 13Z" fill="#010101"/>
<path id="Vector_2" d="M14.768 13C14.768 13.6084 14.5263 14.192 14.0961 14.6222C13.6658 15.0524 13.0823 15.2941 12.4739 15.2941C11.8654 15.2941 11.2819 15.0524 10.8517 14.6222C10.4215 14.192 10.1798 13.6084 10.1798 13C10.1798 12.3916 10.4215 11.808 10.8517 11.3778C11.2819 10.9476 11.8654 10.7059 12.4739 10.7059C13.0823 10.7059 13.6658 10.9476 14.0961 11.3778C14.5263 11.808 14.768 12.3916 14.768 13Z" fill="#010101"/>
<path id="Vector_3" d="M5.59153 13C5.59153 13.6084 5.34983 14.192 4.9196 14.6222C4.48937 15.0524 3.90585 15.2941 3.29741 15.2941C2.68897 15.2941 2.10545 15.0524 1.67522 14.6222C1.24499 14.192 1.00329 13.6084 1.00329 13C1.00329 12.3916 1.24499 11.808 1.67522 11.3778C2.10545 10.9476 2.68897 10.7059 3.29741 10.7059C3.90585 10.7059 4.48937 10.9476 4.9196 11.3778C5.34983 11.808 5.59153 12.3916 5.59153 13Z" fill="#010101"/>
</g>
</svg>
