<svg width="30" height="30" viewBox="0 0 30 30" fill="none" xmlns="http://www.w3.org/2000/svg">
<g id="solar:album-broken">
<g id="Group">
<path id="Vector" d="M26.4924 20.9912C26.0549 24.0912 25.8362 25.6425 24.7149 26.5712C23.5937 27.5 21.9399 27.5 18.6312 27.5H11.3687C8.06117 27.5 6.40617 27.5 5.28492 26.5712C4.16367 25.6425 3.94492 24.0925 3.50742 20.9912L2.97992 17.2413C2.42117 13.2863 2.14242 11.31 3.32742 10.0287C4.51242 8.75 6.62242 8.75 10.8399 8.75H19.1599C23.3774 8.75 25.4874 8.75 26.6724 10.03C27.6087 11.0413 27.6312 12.4875 27.3237 15" stroke="#010101" stroke-width="1.8" stroke-linecap="round"/>
<path id="Vector_2" d="M24.4523 8.75C24.5195 8.36692 24.5019 7.97379 24.401 7.59821C24.3 7.22262 24.1181 6.87369 23.8679 6.57589C23.6178 6.2781 23.3055 6.03866 22.953 5.87439C22.6004 5.71012 22.2162 5.625 21.8273 5.625H8.17232C7.78341 5.625 7.39921 5.71012 7.04668 5.87439C6.69416 6.03866 6.38187 6.2781 6.13172 6.57589C5.88157 6.87369 5.69964 7.22262 5.59868 7.59821C5.49772 7.97379 5.48019 8.36692 5.54732 8.75M21.8748 5.625C21.9098 5.3 21.9286 5.13875 21.9286 5.005C21.9299 4.38712 21.7024 3.79062 21.2899 3.33058C20.8774 2.87054 20.3092 2.57955 19.6948 2.51375C19.5623 2.5 19.3998 2.5 19.0748 2.5H10.9248C10.5998 2.5 10.4361 2.5 10.3036 2.51375C9.6892 2.57955 9.12096 2.87054 8.70847 3.33058C8.29599 3.79062 8.06847 4.38712 8.06982 5.005C8.06982 5.13875 8.08732 5.30125 8.12357 5.625" stroke="#010101" stroke-width="1.8"/>
<path id="Vector_3" d="M20.625 16.25C21.6605 16.25 22.5 15.4105 22.5 14.375C22.5 13.3395 21.6605 12.5 20.625 12.5C19.5895 12.5 18.75 13.3395 18.75 14.375C18.75 15.4105 19.5895 16.25 20.625 16.25Z" stroke="#010101" stroke-width="1.8"/>
<path id="Vector_4" d="M25 25L21.395 22.3138C20.2325 21.4488 18.5 21.3625 17.22 22.1063L16.8875 22.3C15.9975 22.8175 14.7875 22.7313 14.02 22.095L9.22121 18.1238C8.26371 17.3313 6.72746 17.2888 5.70871 18.0263L4.05371 19.2263" stroke="#010101" stroke-width="1.8" stroke-linecap="round"/>
</g>
</g>
</svg>
