<svg width="16" height="16" viewBox="0 0 16 16" fill="none" xmlns="http://www.w3.org/2000/svg">
<g id="Frame">
<path id="Vector" d="M8.00049 1.28354C11.1576 1.28371 13.7173 3.84316 13.7173 7.00034C13.7172 8.00489 13.4571 8.97307 12.9702 9.82748C12.9463 9.86944 12.9131 9.90476 12.8755 9.93491L12.8765 9.93588L9.04639 14.3656C8.91666 14.5157 8.75606 14.6365 8.57568 14.7191C8.39523 14.8017 8.19894 14.845 8.00049 14.8451C7.80206 14.8452 7.60581 14.8025 7.42529 14.7201C7.24476 14.6376 7.08354 14.5175 6.95361 14.3675L3.06592 9.87534V9.87631C3.04591 9.85334 3.02864 9.82761 3.01514 9.80112L2.84521 9.47495C2.47479 8.70432 2.2824 7.85851 2.28369 7.00034C2.28369 3.84305 4.84321 1.28354 8.00049 1.28354ZM8.00049 2.05014C5.26677 2.05014 3.05029 4.26662 3.05029 7.00034C3.05035 7.85475 3.26702 8.67626 3.67334 9.40561L7.53369 13.8656C7.59155 13.9324 7.66328 13.9861 7.74365 14.0228C7.82398 14.0595 7.91122 14.0784 7.99951 14.0785C8.08799 14.0784 8.17589 14.0596 8.25635 14.0228C8.33683 13.986 8.40844 13.9316 8.46631 13.8646L12.3384 9.38315C12.7403 8.65317 12.951 7.8337 12.9497 7.00034C12.9497 4.26672 10.7341 2.05031 8.00049 2.05014ZM8.00049 4.61655C8.63239 4.61663 9.23819 4.86801 9.68506 5.31479C10.132 5.76175 10.3833 6.36824 10.3833 7.00034C10.3832 7.63232 10.1319 8.23802 9.68506 8.68491C9.23817 9.13179 8.63247 9.38306 8.00049 9.38315C7.68754 9.38315 7.37751 9.32126 7.08838 9.20151C6.79922 9.08173 6.53625 8.90622 6.31494 8.68491C6.0938 8.46372 5.91808 8.20139 5.79834 7.91245C5.67861 7.62339 5.61674 7.31321 5.6167 7.00034C5.6167 6.68743 5.67862 6.37733 5.79834 6.08823C5.91811 5.79907 6.09363 5.5361 6.31494 5.31479C6.53625 5.09348 6.79922 4.91796 7.08838 4.79819C7.37748 4.67847 7.68758 4.61655 8.00049 4.61655ZM8.00049 5.38315C7.57172 5.38315 7.16012 5.5536 6.85693 5.85678C6.55375 6.15996 6.3833 6.57157 6.3833 7.00034C6.38339 7.42891 6.55393 7.83982 6.85693 8.14291C7.16012 8.4461 7.57172 8.61655 8.00049 8.61655C8.42914 8.61646 8.83996 8.44602 9.14307 8.14291C9.44617 7.83981 9.61661 7.42898 9.6167 7.00034C9.6167 6.57157 9.44625 6.15996 9.14307 5.85678C8.83997 5.55378 8.42906 5.38323 8.00049 5.38315Z" fill="#010101" stroke="#010101" stroke-width="0.1"/>
</g>
</svg>
