<svg width="28" height="28" viewBox="0 0 28 28" fill="none" xmlns="http://www.w3.org/2000/svg">
<g id="Group">
<path id="Vector" d="M10.25 11.5H6.5M22.75 16.5H5.25" stroke="#010101" stroke-width="1.6" stroke-linecap="round"/>
<path id="Vector_2" d="M20.25 11.0498C20.4985 11.0498 20.7002 11.2515 20.7002 11.5C20.7002 11.7485 20.4985 11.9502 20.25 11.9502C20.0015 11.9502 19.7998 11.7485 19.7998 11.5C19.7998 11.2515 20.0015 11.0498 20.25 11.0498Z" fill="black" stroke="#010101" stroke-width="1.6"/>
<path id="Vector_3" d="M17.75 19.625H10.25M15.25 22.75H10.25M26.5 14C26.5 17.535 26.5 19.3038 25.4013 20.4013C24.6 21.2038 23.4425 21.42 21.5 21.4787M6.5 21.4787C4.55875 21.42 3.4 21.2038 2.59875 20.4013C1.5 19.3038 1.5 17.535 1.5 14C1.5 10.465 1.5 8.69625 2.59875 7.59875C3.69625 6.5 5.465 6.5 9 6.5H19C22.535 6.5 24.3038 6.5 25.4013 7.59875C25.7763 7.97375 26.0238 8.42625 26.1863 9" stroke="#010101" stroke-width="1.6" stroke-linecap="round"/>
<path id="Vector_4" d="M21.4787 6.5C21.42 4.55875 21.2038 3.4 20.4013 2.59875C19.3038 1.5 17.535 1.5 14 1.5C10.465 1.5 8.69625 1.5 7.59875 2.59875C6.79625 3.4 6.58 4.55875 6.52125 6.5M21.5 17.75V19C21.5 22.535 21.5 24.3038 20.4013 25.4013C19.6 26.2038 18.4425 26.42 16.5 26.4787M6.5 17.75V19C6.5 22.535 6.5 24.3038 7.59875 25.4013C8.4 26.2038 9.55875 26.42 11.5 26.4787" stroke="#010101" stroke-width="1.6" stroke-linecap="round"/>
</g>
</svg>
