<svg width="22" height="22" viewBox="0 0 22 22" fill="none" xmlns="http://www.w3.org/2000/svg">
<g id="solar:settings-linear">
<g id="Group">
<path id="Vector" d="M11 13.75C12.5188 13.75 13.75 12.5188 13.75 11C13.75 9.48122 12.5188 8.25 11 8.25C9.48122 8.25 8.25 9.48122 8.25 11C8.25 12.5188 9.48122 13.75 11 13.75Z" stroke="#010101" stroke-width="1.4"/>
<path id="Vector_2" d="M12.6178 1.97268C12.2814 1.83334 11.8543 1.83334 10.9999 1.83334C10.1456 1.83334 9.71842 1.83334 9.38201 1.97268C9.15942 2.06481 8.95718 2.19991 8.78684 2.37026C8.6165 2.5406 8.4814 2.74284 8.38926 2.96543C8.30493 3.16984 8.27101 3.40909 8.25817 3.75651C8.25221 4.00761 8.18264 4.2531 8.056 4.47C7.92935 4.68691 7.74975 4.86814 7.53401 4.99676C7.31475 5.11938 7.06796 5.18438 6.81675 5.18566C6.56553 5.18694 6.31809 5.12447 6.09759 5.00409C5.78959 4.84093 5.56684 4.75109 5.34592 4.72176C4.86405 4.65839 4.37673 4.78896 3.99109 5.08476C3.70326 5.30751 3.48876 5.67693 3.06159 6.41668C2.63442 7.15643 2.41992 7.52584 2.37317 7.88793C2.34167 8.12667 2.35752 8.36929 2.4198 8.60191C2.48209 8.83454 2.58959 9.05261 2.73617 9.24368C2.87184 9.41968 3.06159 9.56726 3.35584 9.75243C3.78942 10.0247 4.06809 10.4885 4.06809 11C4.06809 11.5115 3.78942 11.9753 3.35584 12.2467C3.06159 12.4328 2.87092 12.5803 2.73617 12.7563C2.58959 12.9474 2.48209 13.1655 2.4198 13.3981C2.35752 13.6307 2.34167 13.8733 2.37317 14.1121C2.42084 14.4733 2.63442 14.8436 3.06067 15.5833C3.48876 16.3231 3.70234 16.6925 3.99109 16.9153C4.18216 17.0618 4.40023 17.1693 4.63285 17.2316C4.86548 17.2939 5.10809 17.3098 5.34684 17.2783C5.56684 17.2489 5.78959 17.1591 6.09759 16.9959C6.31809 16.8755 6.56553 16.8131 6.81675 16.8144C7.06796 16.8156 7.31475 16.8806 7.53401 17.0033C7.97676 17.2599 8.23984 17.732 8.25817 18.2435C8.27101 18.5918 8.30401 18.8302 8.38926 19.0346C8.4814 19.2572 8.6165 19.4594 8.78684 19.6298C8.95718 19.8001 9.15942 19.9352 9.38201 20.0273C9.71842 20.1667 10.1456 20.1667 10.9999 20.1667C11.8543 20.1667 12.2814 20.1667 12.6178 20.0273C12.8404 19.9352 13.0427 19.8001 13.213 19.6298C13.3834 19.4594 13.5185 19.2572 13.6106 19.0346C13.6949 18.8302 13.7288 18.5918 13.7417 18.2435C13.76 17.732 14.0231 17.259 14.4658 17.0033C14.6851 16.8806 14.9319 16.8156 15.1831 16.8144C15.4343 16.8131 15.6818 16.8755 15.9023 16.9959C16.2103 17.1591 16.433 17.2489 16.653 17.2783C16.8918 17.3098 17.1344 17.2939 17.367 17.2316C17.5996 17.1693 17.8177 17.0618 18.0088 16.9153C18.2975 16.6934 18.5111 16.3231 18.9383 15.5833C19.3654 14.8436 19.5799 14.4742 19.6267 14.1121C19.6582 13.8733 19.6423 13.6307 19.58 13.3981C19.5178 13.1655 19.4103 12.9474 19.2637 12.7563C19.128 12.5803 18.9383 12.4328 18.644 12.2476C18.4294 12.1169 18.2516 11.9339 18.127 11.7157C18.0024 11.4975 17.9352 11.2512 17.9318 11C17.9318 10.4885 18.2104 10.0247 18.644 9.75334C18.9383 9.56726 19.1289 9.41968 19.2637 9.24368C19.4103 9.05261 19.5178 8.83454 19.58 8.60191C19.6423 8.36929 19.6582 8.12667 19.6267 7.88793C19.579 7.52676 19.3654 7.15643 18.9392 6.41668C18.5111 5.67693 18.2975 5.30751 18.0088 5.08476C17.8177 4.93818 17.5996 4.83067 17.367 4.76839C17.1344 4.7061 16.8918 4.69026 16.653 4.72176C16.433 4.75109 16.2103 4.84093 15.9013 5.00409C15.681 5.12431 15.4337 5.18669 15.1826 5.18541C14.9316 5.18412 14.685 5.11922 14.4658 4.99676C14.2501 4.86814 14.0705 4.68691 13.9439 4.47C13.8172 4.2531 13.7476 4.00761 13.7417 3.75651C13.7288 3.40818 13.6958 3.16984 13.6106 2.96543C13.5185 2.74284 13.3834 2.5406 13.213 2.37026C13.0427 2.19991 12.8404 2.06481 12.6178 1.97268Z" stroke="#010101" stroke-width="1.4"/>
</g>
</g>
</svg>
