<svg width="20" height="20" viewBox="0 0 20 20" fill="none" xmlns="http://www.w3.org/2000/svg">
<g id="Frame">
<path id="Vector" d="M14.4312 18.6165H2.90109C1.37279 18.6165 0.129883 17.3736 0.129883 15.8458V4.31513C0.129883 2.78734 1.37279 1.54443 2.90109 1.54443H10.6681C11.082 1.54443 11.4178 1.88023 11.4178 2.29419C11.4178 2.70815 11.082 3.04394 10.6681 3.04394H2.90109C2.20019 3.04394 1.6299 3.61423 1.6299 4.31513V15.8458C1.6299 16.5467 2.20019 17.117 2.90109 17.117H14.4312C15.1321 17.117 15.7024 16.5467 15.7024 15.8458V9.84623C15.7024 9.43176 16.0382 9.09648 16.4522 9.09648C16.8661 9.09648 17.2019 9.43227 17.2019 9.84623V15.8453C17.2025 17.3736 15.9596 18.6165 14.4312 18.6165Z" fill="white"/>
<path id="Vector_2" d="M7.19848 15.2765C6.78453 15.2765 6.44873 14.9407 6.44873 14.5268V13.559C6.44873 8.90465 10.235 5.11835 14.8889 5.11835H18.9863C19.4002 5.11835 19.736 5.45414 19.736 5.8681C19.736 6.28206 19.4002 6.61785 18.9863 6.61785H14.8889C11.0619 6.61785 7.94824 9.73154 7.94824 13.5585V14.5263C7.94824 14.9412 7.61244 15.2765 7.19848 15.2765Z" fill="white"/>
<path id="Vector_3" d="M19.1298 6.53511C18.9529 6.53511 18.7755 6.47289 18.633 6.34639L14.5747 2.74675C14.2646 2.47215 14.2363 1.99803 14.5114 1.68846C14.786 1.37889 15.2602 1.35009 15.5697 1.62521L19.6281 5.22485C19.9381 5.49945 19.9664 5.97357 19.6913 6.28314C19.5437 6.44975 19.337 6.53511 19.1298 6.53511Z" fill="white"/>
</g>
</svg>
