<svg width="86" height="86" viewBox="0 0 86 86" fill="none" xmlns="http://www.w3.org/2000/svg">
<g filter="url(#filter0_d_24_2514)">
<circle cx="43" cy="39" r="23" fill="#010101"/>
</g>
<g clip-path="url(#clip0_24_2514)">
<path d="M41.835 31.8051L36.4982 29.9101L36.4806 29.9041C35.8992 29.7119 35.3218 30.2194 35.4436 30.8243L36.5642 36.3909L33.0838 41.2091L33.0733 41.224C32.7324 41.718 33.037 42.402 33.6372 42.475L39.2733 43.1603L42.5335 47.9168L42.5443 47.9322C42.9046 48.4338 43.6781 48.3563 43.9291 47.7868L46.3249 42.3508L51.7499 40.8562L51.7678 40.851C52.3575 40.6746 52.5378 39.9221 52.0855 39.4979L47.931 35.6009L48.0055 29.6995C48.0133 29.0808 47.3471 28.6866 46.8085 28.9913L41.835 31.8051V31.8051ZM46.3838 31.0747L46.3225 35.9341L46.3224 35.9466C46.3227 36.0558 46.3454 36.1639 46.3889 36.264C46.4325 36.3642 46.4961 36.4545 46.5758 36.5292L49.945 39.6895L45.5315 40.9055L45.5195 40.9089C45.4073 40.9417 45.3036 40.9987 45.2157 41.0758C45.1277 41.1529 45.0578 41.2483 45.0106 41.3553L43.0422 45.8215L40.3916 41.9544L40.3846 41.9443C40.3199 41.853 40.2369 41.7763 40.1409 41.719C40.0448 41.6617 39.9378 41.6252 39.8268 41.6117L35.1801 41.0466L38.0699 37.046L38.0772 37.0357C38.1393 36.9468 38.1828 36.8463 38.2049 36.7401C38.227 36.6339 38.2274 36.5244 38.206 36.4181L37.2956 31.8955L41.643 33.4393C41.7513 33.4777 41.8665 33.4924 41.981 33.4825C42.0954 33.4725 42.2064 33.4381 42.3063 33.3815L46.3838 31.0747Z" fill="white"/>
<path d="M47.1822 43.4194C47.4856 43.1028 47.9863 43.089 48.3066 43.3861L48.3162 43.3952L52.8214 47.712C53.1412 48.0185 53.1521 48.5262 52.8456 48.846C52.5422 49.1627 52.0415 49.1765 51.7212 48.8794L51.7116 48.8703L47.2064 44.5535C46.8865 44.247 46.8757 43.7393 47.1822 43.4194Z" fill="white"/>
</g>
<defs>
<filter id="filter0_d_24_2514" x="0" y="0" width="86" height="86" filterUnits="userSpaceOnUse" color-interpolation-filters="sRGB">
<feFlood flood-opacity="0" result="BackgroundImageFix"/>
<feColorMatrix in="SourceAlpha" type="matrix" values="0 0 0 0 0 0 0 0 0 0 0 0 0 0 0 0 0 0 127 0" result="hardAlpha"/>
<feOffset dy="4"/>
<feGaussianBlur stdDeviation="10"/>
<feComposite in2="hardAlpha" operator="out"/>
<feColorMatrix type="matrix" values="0 0 0 0 0.322115 0 0 0 0 0.320567 0 0 0 0 0.320567 0 0 0 0.25 0"/>
<feBlend mode="normal" in2="BackgroundImageFix" result="effect1_dropShadow_24_2514"/>
<feBlend mode="normal" in="SourceGraphic" in2="effect1_dropShadow_24_2514" result="shape"/>
</filter>
<clipPath id="clip0_24_2514">
<rect width="22" height="22" fill="white" transform="translate(32 28)"/>
</clipPath>
</defs>
</svg>
