<svg width="20" height="20" viewBox="0 0 20 20" fill="none" xmlns="http://www.w3.org/2000/svg">
<g id="Frame" clip-path="url(#clip0_160_2832)">
<path id="Vector" d="M19.9843 0.853189L17.1299 17.9813C17.0928 18.196 16.9718 18.3639 16.7726 18.483C16.6692 18.5396 16.552 18.5728 16.4271 18.5728C16.3451 18.5728 16.2553 18.5533 16.1596 18.5162L11.5364 16.6263C11.2826 16.5228 10.9917 16.597 10.8179 16.8079L8.41068 19.7442C8.27596 19.9161 8.09244 20 7.86401 20C7.76835 20 7.68635 19.9844 7.61606 19.9551C7.47549 19.9024 7.36226 19.8184 7.27635 19.6935C7.19045 19.5705 7.14554 19.4358 7.14554 19.2854V15.8415C7.14554 15.5525 7.24511 15.2753 7.42668 15.0508L16.7805 3.58454L5.00576 13.7759C4.91595 13.852 4.791 13.8735 4.68362 13.8286L0.456751 12.0968C0.181468 11.9934 0.0311357 11.7903 0.0116121 11.4818C-0.00400683 11.1851 0.115087 10.9645 0.368894 10.8219L18.9241 0.117149C19.0374 0.0488159 19.1545 0.0175781 19.2814 0.0175781C19.4318 0.0175781 19.5665 0.0605301 19.6856 0.142529C19.9335 0.318242 20.0292 0.558382 19.9843 0.853189Z" fill="#010101"/>
</g>
<defs>
<clipPath id="clip0_160_2832">
<rect width="20" height="20" fill="white"/>
</clipPath>
</defs>
</svg>
