<svg width="12" height="12" viewBox="0 0 12 12" fill="none" xmlns="http://www.w3.org/2000/svg">
<g id="Frame">
<path id="Vector" d="M9.64317 4.78559C9.64317 2.77348 8.01204 1.14235 5.99993 1.14235C3.98782 1.14235 2.35669 2.77348 2.35669 4.78559C2.35669 6.42894 3.44482 7.81796 4.93982 8.27197L5.99993 9.33208L7.06005 8.27197C8.55504 7.81796 9.64317 6.42894 9.64317 4.78559ZM5.99993 3.5506C6.682 3.5506 7.23492 4.10352 7.23492 4.78559C7.23492 5.46766 6.682 6.02058 5.99993 6.02058C5.31787 6.02058 4.76494 5.46766 4.76494 4.78559C4.76494 4.10352 5.31787 3.5506 5.99993 3.5506Z" fill="#010101"/>
<path id="Vector_2" d="M2.08911 10.271C2.08911 10.3481 2.19027 10.4244 2.38681 10.4955C2.58334 10.5667 2.87141 10.6314 3.23457 10.6859C3.59772 10.7403 4.02885 10.7835 4.50333 10.813C4.97781 10.8425 5.48636 10.8577 5.99994 10.8577C6.51352 10.8577 7.02206 10.8425 7.49655 10.813C7.97103 10.7835 8.40216 10.7403 8.76531 10.6859C9.12847 10.6314 9.41654 10.5667 9.61307 10.4955C9.80961 10.4244 9.91077 10.3481 9.91077 10.271C9.91077 10.1155 9.49873 9.96625 8.76531 9.85624C8.03189 9.74622 7.03716 9.68442 5.99994 9.68442C4.96272 9.68442 3.96799 9.74622 3.23457 9.85624C2.50114 9.96625 2.08911 10.1155 2.08911 10.271Z" fill="#010101"/>
</g>
</svg>
