<svg width="86" height="86" viewBox="0 0 86 86" fill="none" xmlns="http://www.w3.org/2000/svg">
<g id="Group 4" filter="url(#filter0_d_24_2508)">
<circle id="Ellipse 3" cx="43" cy="39" r="23" fill="#010101"/>
<g id="Frame">
<path id="Vector" d="M42.983 38.5031C42.9949 38.5087 43.0041 38.5157 43.0103 38.5216C43.0222 38.533 43.0286 38.5455 43.0318 38.5519C43.0384 38.5648 43.0427 38.5775 43.0445 38.5851C43.0486 38.6019 43.051 38.6223 43.0533 38.6427C43.0581 38.6851 43.0621 38.7434 43.065 38.8107C43.071 38.946 43.0738 39.1253 43.0738 39.3038C43.0738 39.4823 43.071 39.6617 43.065 39.797C43.0621 39.8642 43.0581 39.9226 43.0533 39.965C43.051 39.9853 43.0486 40.0058 43.0445 40.0226C43.0426 40.0302 43.0385 40.0437 43.0318 40.0568C43.0285 40.0632 43.022 40.0749 43.0103 40.0861C42.9979 40.098 42.9738 40.1153 42.9391 40.1154C39.0685 40.1154 35.9518 43.141 35.9518 47.007C35.9578 47.2369 35.8217 47.4293 35.6539 47.5587C35.5274 47.6563 35.3729 47.726 35.2232 47.755L35.0758 47.7697C34.8978 47.7697 34.7241 47.7151 34.5787 47.6124C34.4696 47.5354 34.3808 47.434 34.318 47.3175L34.2633 47.1964V47.1945C34.2392 47.1223 34.2237 47.0475 34.2174 46.9718L34.2164 46.963H34.2174V46.9064L34.2252 46.7931C34.4179 42.1403 38.2479 38.4863 42.9391 38.4933L42.983 38.5031ZM47.4 40.5958C47.6462 40.3169 48.0823 40.1944 48.4957 40.4415L48.5777 40.4962L48.5826 40.5001L48.9234 40.798C49.699 41.5131 50.3377 42.3655 50.8062 43.3136C51.3418 44.3971 51.6432 45.5815 51.691 46.7892C51.6956 46.826 51.6978 46.8632 51.6978 46.8995V46.964C51.6916 47.0401 51.6759 47.1155 51.6519 47.1876L51.651 47.1896C51.5915 47.3574 51.4819 47.5029 51.3365 47.6056C51.2274 47.6827 51.1022 47.7328 50.9713 47.7531L50.8394 47.7628C50.6485 47.7628 50.4301 47.6811 50.2613 47.5509C50.0929 47.4209 49.9562 47.2283 49.9635 46.9972C49.9626 45.0009 49.0829 43.2865 47.7721 41.9972L47.5045 41.7452C47.3028 41.5632 47.2069 41.3517 47.1988 41.1437C47.1909 40.9374 47.2694 40.7438 47.4 40.5958Z" fill="white" stroke="white" stroke-width="0.2"/>
<path id="Vector_2" d="M42.9409 28.2374C46.2188 28.2374 48.8755 30.8941 48.8755 34.1719C48.8755 37.4497 46.2188 40.1065 42.9409 40.1065C39.6631 40.1065 37.0064 37.4498 37.0064 34.1719C37.0064 30.8941 39.6632 28.2374 42.9409 28.2374ZM42.9409 29.8965C40.5794 29.8966 38.6646 31.8114 38.6646 34.1729C38.6646 36.5345 40.5794 38.4493 42.9409 38.4493C45.3025 38.4493 47.2173 36.5345 47.2173 34.1729C47.2173 31.8114 45.3025 29.8965 42.9409 29.8965Z" fill="white" stroke="white" stroke-width="0.2"/>
</g>
</g>
<defs>
<filter id="filter0_d_24_2508" x="0" y="0" width="86" height="86" filterUnits="userSpaceOnUse" color-interpolation-filters="sRGB">
<feFlood flood-opacity="0" result="BackgroundImageFix"/>
<feColorMatrix in="SourceAlpha" type="matrix" values="0 0 0 0 0 0 0 0 0 0 0 0 0 0 0 0 0 0 127 0" result="hardAlpha"/>
<feOffset dy="4"/>
<feGaussianBlur stdDeviation="10"/>
<feComposite in2="hardAlpha" operator="out"/>
<feColorMatrix type="matrix" values="0 0 0 0 0.322115 0 0 0 0 0.320567 0 0 0 0 0.320567 0 0 0 0.25 0"/>
<feBlend mode="normal" in2="BackgroundImageFix" result="effect1_dropShadow_24_2508"/>
<feBlend mode="normal" in="SourceGraphic" in2="effect1_dropShadow_24_2508" result="shape"/>
</filter>
</defs>
</svg>
