<svg width="61" height="61" viewBox="0 0 61 61" fill="none" xmlns="http://www.w3.org/2000/svg">
<path id="Vector" d="M30.4167 0C13.6267 0 0 13.6267 0 30.4167C0 47.2067 13.6267 60.8333 30.4167 60.8333C47.2067 60.8333 60.8333 47.2067 60.8333 30.4167C60.8333 13.6267 47.2067 0 30.4167 0ZM30.4167 9.125C35.4658 9.125 39.5417 13.2008 39.5417 18.25C39.5417 23.2992 35.4658 27.375 30.4167 27.375C25.3675 27.375 21.2917 23.2992 21.2917 18.25C21.2917 13.2008 25.3675 9.125 30.4167 9.125ZM30.4167 52.3167C22.8125 52.3167 16.0904 48.4233 12.1667 42.5225C12.2579 36.4696 24.3333 33.1542 30.4167 33.1542C36.4696 33.1542 48.5754 36.4696 48.6667 42.5225C44.7429 48.4233 38.0208 52.3167 30.4167 52.3167Z" fill="#667080"/>
</svg>
